<svg version="1.1" id="Слой_1" xmlns="http://www.w3.org/2000/svg" xmlns:xlink="http://www.w3.org/1999/xlink" x="0px" y="0px" viewBox="0 0 128 128" enable-background="new 0 0 128 128" xml:space="preserve">
<g>
	<path fill="#EFDED5" d="M116.5,55.8c-1.2,1.5-14.9,7.7-17.6,9.1c-0.6-0.5-1.2-1.1-1.9-1.6c-5.4-3.9-11.4-4.7-17.8-3.7
		c-6,0.9-11.5,3.4-16.7,6.4c-0.4,0.3-0.8,0.3-1.2,0.1c-12.5-4.5-20.7,3.4-22.3,4.1c-0.1-0.5-0.1-0.9-0.1-1.4
		c-0.3-4-0.9-11.4-0.9-15.4c0.1-7.7,0.4-10.2,1.1-14.5c0.4-2.7,1.1-5.5,2.8-7.7c0.6-0.8,1.5-1.5,2.3-1.9c2.7-1.4,6.5-1.2,6.5-1.2
		h6.2c3.8,0,7-2.7,7.5-6.4l0.5-3c-2.3-2.7-4.6-5.4-6.9-8.1c-0.3-0.3-0.5-0.4-0.9-0.3c-1.9,0.5-3.8,0.9-5.6,1.5
		c-4.6,1.5-9,3.2-12.8,6.2c-1.7,1.3-3.1,2.9-4,4.9c-1.2,2.7-2.4,5.3-4,7.8c-4.7,7.6-11.1,23-14.7,32.8c-2,5.5-4.1,18.6-4.3,23
		c-0.3,3.9,0.2,5,3.1,5.9c2.2,0.7,4.5,1.4,6.6,2.2c7.9,3.1,13.5,6.7,24.6,7.9c16,1.7,28.2-4.9,30.5-5.6c2.3,8.1,4.8,15.5,7.2,21h0
		c18.1,0,32.9-14.7,32.9-32.9V55.8z"></path>
	<path fill="#D8B39A" d="M50,96.5c-13-1.4-17.3-5-24.6-7.9c-2.2-0.8-4.4-1.5-6.6-2.2c-2.9-0.9-3.4-2-3.1-5.9c0.2-4.5-3.8,1.5-4,6
		c-0.3,3.9,0.2,5,3.1,5.9c2.2,0.7,4.5,1.4,6.6,2.2c7.9,3.1,13.5,6.7,24.6,7.9c16,1.7,28.2-4.9,30.5-5.6C76.5,97,66,98.2,50,96.5z"></path>
	<path fill="#D8B39A" d="M77.3,99.9c0,0.1,0.1,0.3,0.1,0.4c1.1,3.8,2.3,7.4,3.5,10.7c0.1,0.3,0.2,0.6,0.3,0.9
		c0.2,0.5,0.4,1.1,0.6,1.6c0,0,0,0,0,0c0.3,0.8,0.6,1.5,0.9,2.3c0.3,0.7,0.6,1.5,0.9,2.1h0c3.9,0,7.7-0.7,11.2-2c-3-3,0-11.9-5-20.1
		C87.3,91.7,76.5,95,76.5,95"></path>
	<path fill="#FFFFFF" d="M16.6,91.4c0.2-4.5,0.3-19.7,8.2-34.7c4.8-9.3,10.1-25.6,14.8-33.1c1.5-2.5,16.7-7.4,18.4-8.7
		c3.1-2.5,0-4.4,0-4.4c-0.3-0.3-0.5-0.4-0.9-0.3c-1.9,0.5-3.8,0.9-5.6,1.5c-4.6,1.5-9,3.2-12.8,6.2c-1.7,1.3-3.1,2.9-4,4.9
		c-1.2,2.7-2.4,5.3-4,7.8c-4.7,7.6-11.1,23-14.7,32.8c-2,5.5-4.1,18.6-4.3,23c-0.3,3.9,0.2,5,3.1,5.9C16.9,93,16.3,95.3,16.6,91.4z"></path>
	<path fill="none" stroke="#454B54" stroke-width="6" stroke-linecap="round" stroke-linejoin="round" stroke-miterlimit="10" d="
		M38.8,68.8c-0.3-4-0.9-11.4-0.9-15.4c0.1-7.7,0.4-10.2,1.1-14.5c0.4-2.7,1.1-5.5,2.8-7.7c0.6-0.8,1.5-1.5,2.3-1.9
		c2.7-1.4,6.5-1.2,6.5-1.2h6.2c3.8,0,7-2.7,7.5-6.4v0c0.3-1.9-0.2-3.8-1.5-5.2c-1.7-1.9-3.3-3.9-5-5.8c-0.3-0.3-0.5-0.4-0.9-0.3
		c-1.9,0.5-3.8,0.9-5.6,1.5c-4.6,1.5-9,3.2-12.8,6.2c-1.7,1.3-3.1,2.9-4,4.9c-1.2,2.7-2.4,5.3-4,7.8c-4.7,7.6-11.1,23-14.7,32.8
		c-2,5.5-4.1,18.6-4.3,23c-0.3,3.9,0.2,5,3.1,5.9c2.2,0.7,4.5,1.4,6.6,2.2c7.9,3.1,13.5,6.7,24.6,7.9c16,1.7,28.2-4.9,30.5-5.6
		c2.3,8.1,4.8,15.5,7.2,21"></path>
	<path fill="none" stroke="#454B54" stroke-width="6" stroke-linecap="round" stroke-linejoin="round" stroke-miterlimit="10" d="
		M116.5,55.8c-1.2,1.5-14.9,7.7-17.6,9.1c-0.6-0.5-1.2-1.1-1.9-1.6c-5.4-3.9-11.4-4.7-17.8-3.7c-6,0.9-11.5,3.4-16.7,6.4"></path>
	<path fill="none" stroke="#454B54" stroke-width="6" stroke-linecap="round" stroke-linejoin="round" stroke-miterlimit="10" d="
		M65.2,67.5c-18.5-8.8-28.3,4.6-28.3,4.6"></path>
</g>
</svg>